<svg width="320" height="57" viewBox="0 0 320 57" fill="none" xmlns="http://www.w3.org/2000/svg">
<g clip-path="url(#clip0_1_7)">
<path d="M291.546 52.8151V29.35C291.546 19.5418 296.439 14.1799 303.364 14.1799C308.934 14.1799 313.244 16.7768 313.244 24.1563C313.244 27.762 312.322 30.3589 310.628 32.0403L313.752 35.1416C316.537 32.5447 318.231 28.8456 318.231 24.1563C318.231 15.1888 311.889 10.0698 304.041 10.0698C297.285 10.0698 292.392 14.0118 290.699 21.8024V10.9105H203.961C202.117 4.29695 195.38 0.859389 185.575 0.859389H161.506L160.583 4.20354H168.77L154.674 52.8338H120.216V29.3687C120.216 19.5605 125.109 14.1986 132.035 14.1986C137.605 14.1986 141.915 16.7955 141.915 24.175C141.915 27.7807 140.993 30.3776 139.299 32.059L142.423 35.1603C145.208 32.5634 146.902 28.8643 146.902 24.175C146.902 15.2075 140.56 10.0885 132.712 10.0885C125.956 10.0885 121.063 14.0305 119.37 21.821V10.9292H44.6954C42.343 3.81121 36.5843 0.0373636 29.4895 0.0373636C12.9287 -1.15857e-06 0 18.7011 0 38.3176C0 50.4798 7.00071 57.0187 16.3914 57.0187C32.8582 57.0187 45.8622 38.3176 45.8622 18.7011C45.8622 17.1318 45.7304 15.6372 45.5046 14.2547H58.6027L74.6554 57H78.024L94.0767 14.2547H112.519V52.8151H97.1442V56.1593H178.217L179.139 52.8151H162.917L177.012 4.18486H184.615C193.235 4.18486 196.528 7.52901 196.528 14.6657C196.528 22.2881 192.143 31.0128 178.537 31.0128H172.628L171.705 34.3756H178.462C192.726 34.3756 204.47 27.3323 204.47 14.7591C204.47 14.591 204.451 14.4228 204.451 14.2547H216.984L227.372 57H231.249L238.683 26.3235L246.192 57H250.068L260.456 14.2547H283.849V52.8151H268.473V56.1593H319.981V52.8151H291.527H291.546ZM16.9748 53.1514C11.0656 53.1514 7.26417 49.6391 7.26417 40.5782C7.26417 24.7355 17.5582 3.84857 28.8873 3.84857C34.7965 3.84857 38.598 7.36086 38.598 16.4218C38.598 32.2645 28.3039 53.1327 16.9748 53.1327V53.1514ZM78.1181 46.4444L67.1466 14.2547H89.5225L78.1181 46.4444ZM231.174 43.6794L224.587 14.2547H237.836L231.174 43.6794ZM249.993 43.6794L243.406 14.2547H256.674L250.012 43.6794H249.993Z" fill="white"/>
</g>
<defs>
<clipPath id="clip0_1_7">
<rect width="320" height="57" fill="white"/>
</clipPath>
</defs>
</svg>
